<svg width="538" height="690" viewBox="0 0 538 690" fill="none" xmlns="http://www.w3.org/2000/svg">
<g filter="url(#filter0_d_200:1104)">
<path fill-rule="evenodd" clip-rule="evenodd" d="M238.741 -105.612C311.599 -87.8342 377.421 -47.6082 423.569 13.0023C474.276 79.5991 529.618 162.749 508.208 248.301C486.879 333.535 376.269 352.512 321.531 420.745C265.948 490.031 271.042 620.805 189.25 645.896C107.974 670.828 48.3213 570.929 -21.2821 525.907C-76.5152 490.179 -133.374 461.658 -175.461 409.985C-224.799 349.41 -284.276 286.547 -282.835 204.782C-281.361 121.148 -230.232 41.315 -167.988 -14.0104C-110.948 -64.7099 -33.3359 -64.7298 38.61 -80.9332C106.241 -96.1648 172.781 -121.708 238.741 -105.612Z" fill="#FBC259"/>
</g>
<defs>
<filter id="filter0_d_200:1104" x="-317.861" y="-130.745" width="855.798" height="820.577" filterUnits="userSpaceOnUse" color-interpolation-filters="sRGB">
<feFlood flood-opacity="0" result="BackgroundImageFix"/>
<feColorMatrix in="SourceAlpha" type="matrix" values="0 0 0 0 0 0 0 0 0 0 0 0 0 0 0 0 0 0 127 0" result="hardAlpha"/>
<feOffset dx="-5" dy="10"/>
<feGaussianBlur stdDeviation="15"/>
<feComposite in2="hardAlpha" operator="out"/>
<feColorMatrix type="matrix" values="0 0 0 0 0.491667 0 0 0 0 0.491667 0 0 0 0 0.491667 0 0 0 1 0"/>
<feBlend mode="normal" in2="BackgroundImageFix" result="effect1_dropShadow_200:1104"/>
<feBlend mode="normal" in="SourceGraphic" in2="effect1_dropShadow_200:1104" result="shape"/>
</filter>
</defs>
</svg>
